<svg width="482pt" height="92pt" viewBox="0 0 482 92" xmlns="http://www.w3.org/2000/svg">
    <path fill="#fff" d="M0 0h482v92H0V0m38.98 22.04c-1.7 3.24-3.05 7.73-7.17 8.5-7.09 1.31-14.34 1.76-21.36 3.46-.59 1.03-1.17 2.06-1.76 3.09 3.59 5.39 8.75 9.44 13.19 14.09 1.76 1.95 4.48 3.84 4.24 6.8-.39 7.43-2.92 14.63-3.08 22.07-.06 2.27 2.67 3.62 4.59 2.71 6.32-2.77 12.11-6.61 18.38-9.47 3.35-1.39 6.59.71 9.43 2.25 4.6 2.39 9.02 5.15 13.78 7.2 2.41 1.2 5.39-1.01 4.76-3.69-.59-6.82-2.58-13.45-3.14-20.28-.23-1.9.4-3.83 1.77-5.18 4.74-4.92 10.05-9.31 14.43-14.57 1.84-2.08 0-5.32-2.57-5.54-6.38-1.24-12.89-1.72-19.27-2.93-2.44-.35-4.16-2.34-5.21-4.43-2.59-5.13-4.98-10.37-7.56-15.51-.86-1.95-2.79-3.02-4.44-4.2-4.46 4.24-6.22 10.32-9.01 15.63m101.52-11.7c-2.66 5.17-5 10.5-7.63 15.68-1.04 2.11-2.76 4.12-5.21 4.5-6.56 1.3-13.29 1.66-19.82 3.1-2.55.38-3.74 3.51-2.04 5.44 4.29 5.08 9.47 9.32 14.03 14.14 1.17 1.27 2.31 2.82 2.16 4.65-.36 7.45-2.92 14.65-3.14 22.11-.25 2.52 2.71 3.62 4.73 2.77 4.82-2.09 9.31-4.88 13.96-7.32 2.73-1.48 5.83-3.41 9.05-2.21 6.31 2.83 12.11 6.75 18.46 9.51 1.94 1.09 3.5-.81 5.1-1.64-.81-7.44-2.61-14.74-3.5-22.17-.58-4.19 3.46-6.63 5.9-9.34 3.79-4.1 8.49-7.46 11.36-12.33-.44-1.01-.86-2.01-1.29-3.02-7.2-2.09-14.77-2.26-22.08-3.77-2.5-.57-4.08-2.76-5.07-4.96-2.37-4.95-4.71-9.92-7.15-14.83-.74-1.52-1.82-2.98-3.43-3.62-2.07-.06-3.55 1.61-4.39 3.31m90.94 10.03c-2.04 3.66-3.04 9.07-7.8 10.1-6.55 1.36-13.29 1.7-19.83 3.12-2.46.25-2.65 2.89-3.1 4.78 4.64 4.66 9.45 9.16 14.06 13.86 1.5 1.6 3.24 3.43 3.15 5.79-.62 7.33-2.88 14.47-3.23 21.82-.07 2.61 2.85 3.85 4.99 2.78 6.35-2.75 12.08-6.77 18.44-9.49 3.89-1.21 7.26 1.68 10.56 3.24 5.03 2.42 9.63 6.02 15.24 6.99.8-1.57 2.17-3.14 1.8-5.02-.99-6.48-2.36-12.89-3.27-19.38-.34-2.02.61-4.01 1.94-5.48 4.43-4.94 9.88-8.89 14.08-14.05 1.6-2.01.71-5.57-2.07-5.87-6.32-1.31-12.8-1.76-19.16-2.95-1.84-.39-3.77-1.24-4.69-2.98-2.09-3.48-3.6-7.25-5.41-10.87-1.93-3.72-3.22-8.15-7.1-10.36-4.7 3.29-5.88 9.24-8.6 13.97m95.89-.03c-2.15 3.58-3.01 9.03-7.7 10.11-6.65 1.37-13.48 1.72-20.11 3.16-2.54.53-3.6 3.74-1.85 5.67 4.37 5.01 9.43 9.38 14.05 14.15 1.11 1.3 2.13 2.89 2.03 4.67-.59 7.34-2.91 14.48-3.19 21.85.07 2.65 3.02 3.75 5.18 2.62 5.79-2.68 11.2-6.12 16.94-8.89 1.81-.94 4.02-1.15 5.91-.31 6.09 2.71 11.66 6.46 17.74 9.19 2.13 1.16 5.09-.04 5.15-2.62-.31-7.38-2.59-14.53-3.22-21.88-.15-1.79 1-3.33 2.12-4.59 4.51-4.87 9.61-9.2 13.97-14.21 1.76-1.89.66-5.07-1.81-5.63-6.66-1.46-13.51-1.81-20.19-3.18-2.2-.4-3.77-2.14-4.67-4.08-3.07-5.98-5.8-12.12-8.92-18.07-.98-.55-1.95-1.1-2.92-1.66-4.79 3.04-5.81 9.09-8.51 13.7M428.57 9.46c-3.31 5.92-5.73 12.3-9.1 18.19-1.1 2.01-3.45 2.77-5.56 3.13-5.6.9-11.23 1.55-16.83 2.43-1.69.37-4.04.81-4.23 2.91-.55 3.55 3.04 5.7 5.13 7.98 4.23 4.35 9.89 7.86 11.93 13.85-1.38 6.78-2.43 13.63-3.62 20.44-.66 2.64 2.02 5.79 4.76 4.35 6.29-2.7 12.02-6.58 18.26-9.41 1.91-.8 4.14-.6 5.96.36 5.73 2.81 11.14 6.28 16.97 8.88 2.22 1.18 5.17-.16 5.13-2.85-.4-7.62-2.96-15.01-3.24-22.62 3.45-7.69 11.81-11.74 16.58-18.51 1.16-2.03-.23-4.69-2.53-5.01-6.3-1.34-12.77-1.76-19.1-2.94-2.15-.35-4.21-1.56-5.16-3.57-2.81-5.28-5.2-10.78-7.9-16.11-.72-1.21-1.27-2.68-2.57-3.37-1.75-1.44-4 .25-4.88 1.87z"/>
    <g fill="none">
        <path d="M38.98 22.04c2.79-5.31 4.55-11.39 9.01-15.63 1.65 1.18 3.58 2.25 4.44 4.2 2.58 5.14 4.97 10.38 7.56 15.51 1.05 2.09 2.77 4.08 5.21 4.43 6.38 1.21 12.89 1.69 19.27 2.93 2.57.22 4.41 3.46 2.57 5.54-4.38 5.26-9.69 9.65-14.43 14.57-1.37 1.35-2 3.28-1.77 5.18.56 6.83 2.55 13.46 3.14 20.28.63 2.68-2.35 4.89-4.76 3.69-4.76-2.05-9.18-4.81-13.78-7.2-2.84-1.54-6.08-3.64-9.43-2.25-6.27 2.86-12.06 6.7-18.38 9.47-1.92.91-4.65-.44-4.59-2.71.16-7.44 2.69-14.64 3.08-22.07.24-2.96-2.48-4.85-4.24-6.8-4.44-4.65-9.6-8.7-13.19-14.09.59-1.03 1.17-2.06 1.76-3.09 7.02-1.7 14.27-2.15 21.36-3.46 4.12-.77 5.47-5.26 7.17-8.5m9.46-10.19c-2.6 5.56-5.38 11.04-8.03 16.58-1.48 3.33-4.69 5.73-8.31 6.2-6.12.94-12.26 1.78-18.39 2.69 4.58 4.74 9.61 9.02 14.03 13.9 2.16 2.38 2.89 5.77 2.38 8.89-.91 6.21-2.16 12.36-3.09 18.57 4.64-2.59 9.37-5.04 14.05-7.56 3.35-2.12 7.62-3.33 11.43-1.69 5.88 2.91 11.59 6.15 17.4 9.2-1.01-5.92-1.97-11.85-3.02-17.77-.76-3.54.08-7.53 2.74-10.09 4.47-4.54 8.99-9.05 13.56-13.49-6.09-.81-12.17-1.73-18.25-2.64-3.35-.41-6.48-2.46-7.99-5.5-2.99-5.69-5.62-11.55-8.51-17.29zM140.5 10.34c.84-1.7 2.32-3.37 4.39-3.31 1.61.64 2.69 2.1 3.43 3.62 2.44 4.91 4.78 9.88 7.15 14.83.99 2.2 2.57 4.39 5.07 4.96 7.31 1.51 14.88 1.68 22.08 3.77.43 1.01.85 2.01 1.29 3.02-2.87 4.87-7.57 8.23-11.36 12.33-2.44 2.71-6.48 5.15-5.9 9.34.89 7.43 2.69 14.73 3.5 22.17-1.6.83-3.16 2.73-5.1 1.64-6.35-2.76-12.15-6.68-18.46-9.51-3.22-1.2-6.32.73-9.05 2.21-4.65 2.44-9.14 5.23-13.96 7.32-2.02.85-4.98-.25-4.73-2.77.22-7.46 2.78-14.66 3.14-22.11.15-1.83-.99-3.38-2.16-4.65-4.56-4.82-9.74-9.06-14.03-14.14-1.7-1.93-.51-5.06 2.04-5.44 6.53-1.44 13.26-1.8 19.82-3.1 2.45-.38 4.17-2.39 5.21-4.5 2.63-5.18 4.97-10.51 7.63-15.68m-4.12 17.86c-1.41 3.06-4.15 5.62-7.54 6.23-6.35 1.13-12.75 1.88-19.12 2.89 4.3 4.37 8.67 8.67 13 13 2.64 2.41 3.91 6.18 3.28 9.7-.99 6.19-2.11 12.37-3.12 18.57 5.43-2.84 10.82-5.76 16.23-8.63 3.31-1.81 7.52-1.65 10.78.21 5.31 2.79 10.6 5.65 15.89 8.48-1.02-6.19-2.18-12.37-3.13-18.57-.61-3.39.44-7.01 2.88-9.45 4.36-4.59 9.18-8.71 13.52-13.32-6.05-.87-12.1-1.73-18.14-2.65-3.33-.45-6.59-2.39-8.12-5.46-2.88-5.76-5.67-11.56-8.48-17.35-2.6 5.47-5.33 10.88-7.93 16.35zM231.44 20.37c2.72-4.73 3.9-10.68 8.6-13.97 3.88 2.21 5.17 6.64 7.1 10.36 1.81 3.62 3.32 7.39 5.41 10.87.92 1.74 2.85 2.59 4.69 2.98 6.36 1.19 12.84 1.64 19.16 2.95 2.78.3 3.67 3.86 2.07 5.87-4.2 5.16-9.65 9.11-14.08 14.05-1.33 1.47-2.28 3.46-1.94 5.48.91 6.49 2.28 12.9 3.27 19.38.37 1.88-1 3.45-1.8 5.02-5.61-.97-10.21-4.57-15.24-6.99-3.3-1.56-6.67-4.45-10.56-3.24-6.36 2.72-12.09 6.74-18.44 9.49-2.14 1.07-5.06-.17-4.99-2.78.35-7.35 2.61-14.49 3.23-21.82.09-2.36-1.65-4.19-3.15-5.79-4.61-4.7-9.42-9.2-14.06-13.86.45-1.89.64-4.53 3.1-4.78 6.54-1.42 13.28-1.76 19.83-3.12 4.76-1.03 5.76-6.44 7.8-10.1m.36 8.55c-1.46 3-4.44 5.13-7.73 5.65-6.2.99-12.42 1.83-18.63 2.75 4.01 4.08 8.12 8.07 12.28 12 2.91 2.61 4.86 6.49 4.17 10.48-1 6.28-2.17 12.54-3.16 18.84 5.47-2.94 10.92-5.9 16.45-8.74 3.04-1.6 6.87-1.63 9.92-.04 5.54 2.82 10.94 5.9 16.49 8.7-.99-6.25-2.14-12.48-3.16-18.73-.57-3.34.63-6.92 3.1-9.24 4.42-4.43 8.86-8.84 13.29-13.27-6.23-.97-12.5-1.75-18.71-2.79-3.71-.52-6.73-3.28-8.18-6.64-2.47-5.39-5.27-10.63-7.74-16.03-2.85 5.66-5.47 11.43-8.39 17.06zM327.33 20.34c2.7-4.61 3.72-10.66 8.51-13.7.97.56 1.94 1.11 2.92 1.66 3.12 5.95 5.85 12.09 8.92 18.07.9 1.94 2.47 3.68 4.67 4.08 6.68 1.37 13.53 1.72 20.19 3.18 2.47.56 3.57 3.74 1.81 5.63-4.36 5.01-9.46 9.34-13.97 14.21-1.12 1.26-2.27 2.8-2.12 4.59.63 7.35 2.91 14.5 3.22 21.88-.06 2.58-3.02 3.78-5.15 2.62-6.08-2.73-11.65-6.48-17.74-9.19-1.89-.84-4.1-.63-5.91.31-5.74 2.77-11.15 6.21-16.94 8.89-2.16 1.13-5.11.03-5.18-2.62.28-7.37 2.6-14.51 3.19-21.85.1-1.78-.92-3.37-2.03-4.67-4.62-4.77-9.68-9.14-14.05-14.15-1.75-1.93-.69-5.14 1.85-5.67 6.63-1.44 13.46-1.79 20.11-3.16 4.69-1.08 5.55-6.53 7.7-10.11m.05 9.1c-1.49 2.82-4.45 4.71-7.58 5.16-6.21.99-12.45 1.77-18.66 2.78 4.72 4.13 9.02 8.69 13.47 13.1 2.27 2.22 3.52 5.45 3.13 8.62-.75 6.55-2.21 13-3.17 19.52 5.2-2.77 10.41-5.53 15.6-8.34 3.27-1.95 7.53-2.17 10.91-.37 5.49 2.87 10.94 5.84 16.42 8.74-1.07-6.22-2.2-12.44-3.15-18.68-.5-3.17.3-6.58 2.54-8.94 4.48-4.71 9.22-9.19 13.95-13.66-6.22-1-12.47-1.8-18.7-2.78-3.36-.48-6.37-2.71-7.85-5.75-2.82-5.6-5.46-11.29-8.27-16.89-3 5.77-5.57 11.75-8.64 17.49zM428.57 9.46c.88-1.62 3.13-3.31 4.88-1.87 1.3.69 1.85 2.16 2.57 3.37 2.7 5.33 5.09 10.83 7.9 16.11.95 2.01 3.01 3.22 5.16 3.57 6.33 1.18 12.8 1.6 19.1 2.94 2.3.32 3.69 2.98 2.53 5.01-4.77 6.77-13.13 10.82-16.58 18.51.28 7.61 2.84 15 3.24 22.62.04 2.69-2.91 4.03-5.13 2.85-5.83-2.6-11.24-6.07-16.97-8.88-1.82-.96-4.05-1.16-5.96-.36-6.24 2.83-11.97 6.71-18.26 9.41-2.74 1.44-5.42-1.71-4.76-4.35 1.19-6.81 2.24-13.66 3.62-20.44-2.04-5.99-7.7-9.5-11.93-13.85-2.09-2.28-5.68-4.43-5.13-7.98.19-2.1 2.54-2.54 4.23-2.91 5.6-.88 11.23-1.53 16.83-2.43 2.11-.36 4.46-1.12 5.56-3.13 3.37-5.89 5.79-12.27 9.1-18.19m3.29 2.53c-2.83 5.46-5.36 11.07-8.13 16.55-1.47 3.09-4.4 5.49-7.83 5.99-6.22 1.05-12.48 1.84-18.72 2.79 4.3 4.25 8.49 8.61 12.91 12.75 2.66 2.45 4.12 6.23 3.5 9.83-1.06 6.22-2.1 12.44-3.18 18.66 5.59-2.77 10.99-5.91 16.57-8.72 3.04-1.55 6.82-1.54 9.85.05 5.53 2.83 10.96 5.85 16.48 8.71-1-6.31-2.22-12.58-3.18-18.9-.58-3.64.99-7.38 3.66-9.85 4.38-4.04 8.54-8.33 12.77-12.53-6.21-.94-12.44-1.76-18.64-2.76-3.27-.47-6.15-2.66-7.66-5.56-2.95-5.6-5.47-11.4-8.4-17.01z"/>
    </g>
</svg>
