<svg width="272" viewBox="0 0 100 58.236000061035156">
	<g>
		<svg data-color="1" version="1.1"
			xmlns="http://www.w3.org/2000/svg" x="0px" y="0px" viewBox="0 -0.118 100 58.236" enable-background="new 0 -0.100 100 58.236" space="preserve" fill="#ff5a5f">
			<path d="M81.876,41.127c6.515,0,12.67,1.032,18.124,2.865c-10.263-0.016-32.166,0.982-46.332,14.126
	C37.1,46.861,25.551,41.55,6.658,43.789c11.988-6.911,34.706-4.896,46.437,5.387C60.44,44.206,70.622,41.127,81.876,41.127
	L81.876,41.127z"></path>
			<polygon points="40.009,10.203 40.361,8.414 40.009,-0.118 39.658,8.414 "></polygon>
			<path d="M39.995,11.348c15.94,0,28.86,12.922,28.86,28.86l-0.003,0.275c-6.101,1.36-11.557,3.668-15.982,6.662
	c-10.332-9.055-29.187-11.697-41.728-7.476C11.429,23.979,24.235,11.348,39.995,11.348L39.995,11.348z"></path>
			<polygon points="3.807,39.652 2.786,39.432 1.773,39.619 2.775,39.836 3.807,39.652 "></polygon>
			<polygon points="9.986,39.749 8.96,39.53 4.049,39.656 8.957,39.938 "></polygon>
			<polygon points="33.767,10.873 33.742,9.052 31.623,0.777 33.052,9.196 33.767,10.873 "></polygon>
			<polygon points="35.71,4.241 35.785,3.199 35.46,2.225 35.384,3.248 35.71,4.241 "></polygon>
			<polygon points="36.487,10.374 36.559,9.326 35.742,4.483 36.155,9.38 "></polygon>
			<polygon points="28.656,12.463 28.308,10.675 24.751,2.908 27.654,10.938 28.656,12.463 "></polygon>
			<polygon points="29.39,5.59 29.278,4.552 28.784,3.65 28.892,4.671 "></polygon>
			<polygon points="31.244,11.488 31.128,10.444 29.463,5.824 30.741,10.571 "></polygon>
			<polygon points="23.908,14.936 23.248,13.239 18.369,6.227 22.652,13.613 23.908,14.936 "></polygon>
			<polygon points="23.41,8.042 23.115,7.04 22.469,6.241 22.757,7.226 23.41,8.042 "></polygon>
			<polygon points="26.281,13.518 25.981,12.511 23.524,8.258 25.624,12.703 "></polygon>
			<polygon points="19.676,18.212 18.724,16.659 12.676,10.626 18.205,17.134 19.676,18.212 "></polygon>
			<polygon points="17.96,11.517 17.493,10.584 16.715,9.912 17.173,10.83 "></polygon>
			<polygon points="21.758,16.395 21.286,15.458 18.11,11.71 20.967,15.709 "></polygon>
			<polygon points="16.092,22.189 14.881,20.83 7.857,15.969 14.454,21.39 16.092,22.189 "></polygon>
			<polygon points="13.215,15.906 12.589,15.069 11.703,14.548 12.317,15.369 "></polygon>
			<polygon points="17.819,20.03 17.188,19.191 13.397,16.068 16.918,19.498 "></polygon>
			<polygon points="13.273,26.739 11.839,25.617 4.064,22.081 11.519,26.244 "></polygon>
			<polygon points="9.326,21.067 8.561,20.356 7.595,19.998 8.347,20.698 "></polygon>
			<polygon points="14.589,24.308 13.819,23.595 9.532,21.195 13.607,23.943 "></polygon>
			<polygon points="11.308,31.718 9.697,30.868 1.416,28.769 9.494,31.543 11.308,31.718 "></polygon>
			<polygon points="6.416,26.838 5.536,26.274 4.522,26.093 5.386,26.647 "></polygon>
			<polygon points="12.17,29.092 11.285,28.527 6.641,26.927 11.139,28.907 12.17,29.092 "></polygon>
			<polygon points="10.259,36.968 8.521,36.417 0,35.822 8.441,37.117 10.259,36.968 "></polygon>
			<polygon points="4.577,33.033 3.61,32.635 2.58,32.638 3.529,33.03 4.577,33.033 "></polygon>
			<polygon points="10.641,34.229 9.668,33.832 4.814,33.081 9.593,34.23 10.641,34.229 "></polygon>
			<polygon points="69.778,35.89 71.599,35.987 79.997,34.433 71.499,35.291 69.778,35.89 "></polygon>
			<polygon points="76.263,38.281 77.303,38.423 78.297,38.162 77.278,38.02 "></polygon>
			<polygon points="70.094,38.634 71.131,38.779 76.02,38.293 71.108,38.375 "></polygon>
			<polygon points="68.54,30.682 70.347,30.455 78.336,27.434 70.127,29.787 "></polygon>
			<polygon points="75.346,31.883 76.393,31.839 77.326,31.405 76.298,31.444 "></polygon>
			<polygon points="69.335,33.328 70.384,33.285 75.107,31.938 70.288,32.893 69.335,33.328 "></polygon>
			<polygon points="66.395,25.777 68.133,25.233 75.457,20.84 67.797,24.617 66.395,25.777 "></polygon>
			<polygon points="73.307,25.749 74.327,25.52 75.169,24.928 74.165,25.149 "></polygon>
			<polygon points="67.647,28.24 68.672,28.012 73.081,25.846 68.508,27.643 "></polygon>
			<polygon points="63.412,21.333 65.027,20.488 71.453,14.863 64.587,19.94 "></polygon>
			<polygon points="70.209,20.078 71.174,19.668 71.896,18.938 70.948,19.335 "></polygon>
			<polygon points="65.084,23.534 66.05,23.127 70.005,20.212 65.824,22.792 "></polygon>
			<polygon points="59.688,17.488 61.125,16.37 66.451,9.694 60.596,15.909 59.688,17.488 "></polygon>
			<polygon points="66.153,15.045 67.031,14.472 67.61,13.623 66.75,14.183 66.153,15.045 "></polygon>
			<polygon points="61.724,19.357 62.602,18.785 65.977,15.215 62.319,18.496 "></polygon>
			<polygon points="55.34,14.367 56.556,13.011 60.609,5.494 55.952,12.652 55.34,14.367 "></polygon>
			<polygon points="61.269,10.814 62.03,10.094 62.45,9.156 61.701,9.86 "></polygon>
			<polygon points="57.676,15.845 58.438,15.125 61.125,11.012 58.108,14.892 "></polygon>
			<polygon points="50.506,12.068 51.462,10.518 54.116,2.4 50.803,10.272 50.506,12.068 "></polygon>
			<polygon points="55.709,7.519 56.33,6.674 56.577,5.676 55.964,6.502 55.709,7.519 "></polygon>
			<polygon points="53.067,13.106 53.689,12.262 55.603,7.74 53.324,12.092 "></polygon>
			<polygon points="45.341,10.665 46.005,8.968 47.176,0.509 45.314,8.844 45.341,10.665 "></polygon>
			<polygon points="49.651,5.263 50.113,4.322 50.179,3.296 49.724,4.218 49.651,5.263 "></polygon>
			<polygon points="48.045,11.232 48.508,10.291 49.588,5.499 48.118,10.187 "></polygon>
			<polygon points="43.29,4.12 43.578,3.111 43.461,2.09 43.175,3.078 "></polygon>
			<polygon points="42.771,10.279 43.058,9.271 43.269,4.363 42.656,9.237 "></polygon>
		</svg>
	</g>
</svg>